<svg width="8" height="10" viewBox="0 0 8 10" fill="none" xmlns="http://www.w3.org/2000/svg">
<path d="M3.25917 7.91355C2.88821 8.32269 2.91916 8.9551 3.3283 9.32607C3.73745 9.69704 4.36986 9.66609 4.74083 9.25694L3.25917 7.91355ZM7 5.27649L7.74083 5.94818C8.08639 5.56705 8.08639 4.98592 7.74083 4.60479L7 5.27649ZM4.74083 1.29603C4.36986 0.886888 3.73745 0.855937 3.3283 1.2269C2.91916 1.59787 2.88821 2.23028 3.25917 2.63943L4.74083 1.29603ZM0.999999 4.27649C0.447714 4.27649 -1.12447e-06 4.7242 -1.16824e-06 5.27649C-1.21202e-06 5.82877 0.447714 6.27649 0.999999 6.27649L0.999999 4.27649ZM4.74083 9.25694L7.74083 5.94818L6.25917 4.60479L3.25917 7.91355L4.74083 9.25694ZM7.74083 4.60479L4.74083 1.29603L3.25917 2.63943L6.25917 5.94818L7.74083 4.60479ZM7 4.27649L0.999999 4.27649L0.999999 6.27649L7 6.27649L7 4.27649Z" fill="#EAF2FE"/>
</svg>
