<svg width="10" height="9" viewBox="0 0 10 9" fill="none" xmlns="http://www.w3.org/2000/svg">
<path d="M2.92563 3.70777C2.46168 3.19656 1.67115 3.15824 1.15994 3.6222C0.648726 4.08615 0.610413 4.87668 1.07436 5.38789L2.92563 3.70777ZM4.2944 7.07596L3.36876 7.91602C3.60988 8.1817 3.95354 8.33097 4.31229 8.32583C4.67104 8.32069 5.01028 8.16165 5.2437 7.88918L4.2944 7.07596ZM9.69466 2.6934C10.1438 2.16911 10.0829 1.38 9.55858 0.930875C9.0343 0.481747 8.24519 0.542673 7.79606 1.06696L9.69466 2.6934ZM1.07436 5.38789L3.36876 7.91602L5.22003 6.2359L2.92563 3.70777L1.07436 5.38789ZM5.2437 7.88918L9.69466 2.6934L7.79606 1.06696L3.3451 6.26274L5.2437 7.88918Z" fill="#47BF7C"/>
</svg>
