<?xml version="1.0" encoding="utf-8"?>
<svg width="18" height="19" viewBox="0 0 18 19" fill="none" xmlns="http://www.w3.org/2000/svg">
  <circle cx="9" cy="9.5" r="8" stroke="#0165FF" stroke-width="1.5"/>
  <path d="M 7.049 8.685 C 6.999 7.814 7.009 6.846 7.031 6.104 C 7.031 6.104 7.031 6.104 7.031 6.103 C 7.031 6.099 7.031 6.095 7.031 6.09 C 7.035 6.092 7.039 6.094 7.043 6.096 C 7.696 6.448 8.54 6.924 9.269 7.403 C 9.635 7.643 9.96 7.875 10.214 8.087 C 10.484 8.312 10.616 8.466 10.66 8.542 C 10.704 8.618 10.771 8.81 10.831 9.156 C 10.887 9.482 10.926 9.88 10.951 10.316 C 11.001 11.187 10.991 12.156 10.969 12.898 C 10.969 12.902 10.969 12.906 10.969 12.911 C 10.965 12.909 10.961 12.907 10.957 12.904 C 10.304 12.552 9.461 12.077 8.731 11.598 C 8.365 11.358 8.04 11.126 7.786 10.914 C 7.517 10.689 7.384 10.535 7.34 10.459 C 7.296 10.383 7.229 10.191 7.169 9.845 C 7.113 9.519 7.074 9.121 7.049 8.685 Z M 6.691 5.919 C 6.691 5.919 6.692 5.919 6.693 5.919 L 6.691 5.919 Z M 11.309 13.082 C 11.309 13.082 11.308 13.082 11.307 13.082 L 11.309 13.082 Z" stroke="#0165FF" stroke-width="1.5"/>
</svg>