<?xml version="1.0" encoding="utf-8"?>
<svg width="8" height="8" viewBox="0 0 8 8" fill="none" xmlns="http://www.w3.org/2000/svg">
  <path fill-rule="evenodd" clip-rule="evenodd" d="M 3.521 3.397 L 4.55 3.397 C 5.382 3.397 5.798 3.397 6.112 3.567 C 6.35 3.697 6.546 3.893 6.675 4.13 C 6.846 4.445 6.846 4.861 6.846 5.693 C 6.846 6.525 6.846 6.942 6.675 7.255 C 6.546 7.493 6.35 7.689 6.112 7.818 C 5.798 7.99 5.382 7.99 4.55 7.99 L 3.521 7.99 C 2.689 7.99 2.273 7.99 1.958 7.818 C 1.721 7.689 1.525 7.493 1.395 7.255 C 1.225 6.942 1.225 6.525 1.225 5.693 C 1.225 4.861 1.225 4.445 1.395 4.13 C 1.525 3.893 1.721 3.697 1.958 3.567 C 2.273 3.397 2.689 3.397 3.521 3.397 Z M 4.036 5.311 C 4.229 5.311 4.387 5.482 4.387 5.693 C 4.387 5.905 4.229 6.076 4.036 6.076 C 3.842 6.076 3.684 5.905 3.684 5.693 C 3.684 5.482 3.842 5.311 4.036 5.311 Z" fill="#AEB5C1" style=""/>
  <path d="M 4.727 3.863 C 4.727 4.253 5.043 4.569 5.433 4.569 C 5.823 4.569 6.14 4.253 6.14 3.863 L 4.727 3.863 Z M 1.901 3.863 C 1.901 4.253 2.218 4.569 2.607 4.569 C 2.997 4.569 3.314 4.253 3.314 3.863 L 1.901 3.863 Z M 6.14 3.863 L 6.14 2.159 L 4.727 2.159 L 4.727 3.863 L 6.14 3.863 Z M 1.901 2.159 L 1.901 3.863 L 3.314 3.863 L 3.314 2.159 L 1.901 2.159 Z M 4.02 0.04 C 2.85 0.04 1.901 0.989 1.901 2.159 L 3.314 2.159 C 3.314 1.769 3.63 1.453 4.02 1.453 L 4.02 0.04 Z M 6.14 2.159 C 6.14 0.989 5.191 0.04 4.02 0.04 L 4.02 1.453 C 4.41 1.453 4.727 1.769 4.727 2.159 L 6.14 2.159 Z" fill="#AEB5C1" style=""/>
</svg>