<svg width="159" height="26" viewBox="0 0 159 26" fill="none" xmlns="http://www.w3.org/2000/svg">
<path fill-rule="evenodd" clip-rule="evenodd" d="M22.5783 26H4.50227C2.15162 26 0.24707 24.1375 0.24707 21.8387H6.62987C7.21324 21.8387 7.69367 21.3688 7.69367 20.7983V8.32268C7.69367 7.75218 8.17409 7.28235 8.75747 7.28235H10.8851C11.4684 7.28235 11.9489 7.75218 11.9489 8.32268V20.8067C11.9489 21.3772 12.4207 21.847 13.0127 21.847H21.5231C22.1064 21.847 22.5869 21.3772 22.5869 20.8067V0C24.9375 0 26.8421 1.86254 26.8421 4.16134V21.847C26.8335 24.1375 24.9289 26 22.5783 26ZM136.482 5.38625C136.782 5.63795 137.177 5.7638 137.675 5.7638C138.189 5.7638 138.593 5.63795 138.893 5.38625C139.193 5.13456 139.339 4.79058 139.339 4.34592V3.85092C139.339 3.39787 139.193 3.0455 138.893 2.8022C138.593 2.5505 138.189 2.43304 137.675 2.43304C137.177 2.43304 136.782 2.55889 136.482 2.8022C136.182 3.0455 136.036 3.39787 136.036 3.85092V4.34592C136.036 4.79058 136.182 5.13456 136.482 5.38625ZM139.09 18.8519V7.86125C139.09 7.57599 139.039 7.39142 138.944 7.30752C138.833 7.22362 138.635 7.18167 138.327 7.18167H136.997C136.688 7.18167 136.482 7.22362 136.379 7.30752C136.276 7.39142 136.225 7.57599 136.225 7.86125V18.8519C136.225 19.1371 136.276 19.3217 136.379 19.4056C136.491 19.4895 136.688 19.5315 136.997 19.5315H138.318C138.627 19.5315 138.833 19.4895 138.936 19.4056C139.039 19.3217 139.09 19.1371 139.09 18.8519ZM102.621 2.74346H101.437C100.682 2.73507 99.9354 2.85253 99.2319 3.09583C98.6057 3.31397 98.0652 3.71668 97.6877 4.25363C97.3102 4.79057 97.1215 5.50371 97.1215 6.40142V7.18167H95.869C95.6288 7.18167 95.4658 7.22362 95.3885 7.30751C95.3113 7.39141 95.2684 7.5676 95.2684 7.83607V8.82607C95.2684 9.09454 95.3113 9.26234 95.3885 9.35463C95.4658 9.44691 95.6288 9.48886 95.869 9.48886H97.1215V18.8351C97.1215 19.1204 97.173 19.3049 97.2759 19.3888C97.3875 19.4727 97.5848 19.5147 97.8936 19.5147H99.2148C99.5236 19.5147 99.7295 19.4727 99.8325 19.3888C99.9354 19.3049 99.9869 19.1204 99.9869 18.8351V9.47208H102.132C102.372 9.47208 102.535 9.42175 102.612 9.33785C102.689 9.25395 102.732 9.07776 102.732 8.80929V7.81929C102.732 7.55082 102.689 7.37463 102.612 7.29074C102.535 7.20684 102.372 7.16489 102.132 7.16489H99.9869V6.5776C99.9869 5.98193 100.116 5.57083 100.373 5.36108C100.63 5.15134 101.068 5.04227 101.677 5.04227H102.621C102.861 5.04227 103.024 5.00032 103.101 4.91642C103.178 4.83252 103.221 4.65634 103.221 4.38786V3.39787C103.221 3.12939 103.178 2.95321 103.101 2.86931C103.024 2.78541 102.861 2.74346 102.621 2.74346ZM73.1774 7.91159C72.4482 7.19845 71.4187 6.84608 70.0889 6.84608C68.4846 6.84608 67.2579 7.34108 66.4085 8.30591C65.5592 9.27074 65.1302 10.6551 65.1302 12.4421V14.7493C65.1302 16.335 65.6193 17.585 66.5887 18.4995C67.5667 19.414 68.9136 19.8671 70.6294 19.8671C72.3795 19.8671 73.7179 19.414 74.653 18.4995C75.5881 17.585 76.0514 16.2846 76.0514 14.6067V3.43143C76.0514 3.16296 75.9999 2.97838 75.9055 2.8861C75.8111 2.79381 75.6052 2.74347 75.2792 2.74347H73.9495C73.6406 2.74347 73.4348 2.78542 73.3318 2.8861C73.2289 2.98677 73.1774 3.16296 73.1774 3.43143V7.91159ZM67.9871 14.2711V12.4589C67.9871 10.3027 68.8707 9.22879 70.6123 9.2204C72.3452 9.2204 73.2117 10.3111 73.2117 12.4756V14.2711C73.2203 16.4272 72.3452 17.5011 70.6123 17.5011C68.8621 17.5011 67.9871 16.4272 67.9871 14.2711ZM47.2516 14.1117H54.2435C54.561 14.1117 54.784 14.0697 54.8784 13.969C54.9728 13.8684 55.0242 13.6922 55.0242 13.4237V12.333C55.0242 10.546 54.5781 9.18684 53.6859 8.25557C52.7937 7.3243 51.4897 6.86287 49.7653 6.86287C48.0409 6.85448 46.7197 7.35786 45.7846 8.35625C44.8495 9.35464 44.3862 10.7641 44.3862 12.5847V14.4305C44.3862 16.1755 44.8495 17.5179 45.7846 18.4576C46.7197 19.4056 48.0323 19.8754 49.7395 19.8754C50.5374 19.8754 51.3352 19.758 52.0902 19.5063C52.7508 19.2966 53.3513 18.9358 53.8403 18.4576C54.132 18.1639 54.3722 17.8283 54.5524 17.4592C54.7497 17.0565 54.8526 16.7125 54.8526 16.4105C54.8526 16.2007 54.7926 16.0581 54.6811 15.9826C54.561 15.9071 54.3722 15.8651 54.0977 15.8651H52.6049C52.2704 15.8651 52.0473 15.991 51.9529 16.2594C51.6956 17.0733 50.9835 17.4844 49.8082 17.4844C48.8902 17.4844 48.2382 17.2327 47.8436 16.7377C47.4489 16.2427 47.2516 15.4037 47.2516 14.2291V14.1117ZM47.8865 9.78252C48.2811 9.33786 48.916 9.11133 49.7824 9.11133C50.5803 9.11133 51.1722 9.34625 51.5411 9.80769C51.91 10.2691 52.0988 10.999 52.0988 11.989H47.2516C47.2774 10.9655 47.4918 10.2272 47.8865 9.78252ZM59.9571 7.86124V8.99387C60.2317 8.45692 60.652 8.01226 61.1754 7.70184C61.6901 7.36624 62.2992 7.19006 62.9255 7.18167H63.4574C63.6976 7.18167 63.8606 7.22362 63.9378 7.30752C64.015 7.39141 64.0579 7.5676 64.0579 7.83607V9.11132C64.0579 9.3798 64.015 9.55598 63.9378 9.63988C63.8606 9.72378 63.6976 9.77412 63.4574 9.77412H62.7796C61.9646 9.77412 61.2955 10.0342 60.7807 10.5628C60.266 11.0913 60.0086 11.7877 60.0086 12.6518V18.8519C60.0086 19.1204 59.9571 19.2965 59.8628 19.3972C59.7684 19.4895 59.5539 19.5398 59.2365 19.5398H57.9068C57.5979 19.5398 57.4006 19.4895 57.2891 19.3972C57.1861 19.3049 57.1346 19.1204 57.1346 18.8519V7.86124C57.1346 7.59277 57.1861 7.41658 57.2891 7.31591C57.392 7.22362 57.5979 7.17328 57.9068 7.17328H59.185C59.511 7.17328 59.7169 7.22362 59.8113 7.31591C59.9057 7.41658 59.9571 7.59277 59.9571 7.86124ZM78.8653 18.6337C79.749 19.4476 81.1388 19.8587 83.0347 19.8587C84.5618 19.8587 85.7542 19.5398 86.6036 18.9022C87.4529 18.2646 87.8818 17.3753 87.8818 16.2259V15.756C87.8818 14.0445 86.8867 12.9287 84.8964 12.4085L82.846 11.8883C82.0824 11.687 81.5505 11.4772 81.2589 11.2507C80.9672 11.0242 80.8213 10.7222 80.8213 10.3278C80.8213 9.88318 80.9929 9.54759 81.3275 9.31267C81.6621 9.07776 82.1339 8.9603 82.7259 8.9603C84.1242 8.9603 84.8878 9.38818 85.0165 10.2355C85.0422 10.4285 85.1022 10.5544 85.2052 10.6131C85.3081 10.6718 85.4883 10.7054 85.7628 10.7054H87.0154C87.3242 10.7054 87.5301 10.6634 87.633 10.5879C87.736 10.5124 87.7875 10.3614 87.7875 10.1433C87.7875 9.29589 87.4872 8.59115 86.8953 8.02064C86.0459 7.24039 84.7162 6.84607 82.8975 6.84607C81.3876 6.84607 80.2036 7.16488 79.3629 7.8109C78.5136 8.45691 78.0932 9.35462 78.0932 10.5208V10.848C78.0932 12.484 79.1399 13.5663 81.2245 14.1033L82.8202 14.506C83.3007 14.6234 83.7639 14.7744 84.2186 14.9674C84.536 15.1184 84.7591 15.2946 84.8792 15.496C85.0079 15.7477 85.0679 16.0245 85.0593 16.3014C85.0593 16.788 84.9049 17.1404 84.5789 17.3585C84.2615 17.5766 83.721 17.6857 82.9661 17.6857C82.254 17.6857 81.7221 17.5766 81.3704 17.3669C81.0186 17.1571 80.7956 16.8132 80.7184 16.3433C80.6669 16.0497 80.4524 15.8987 80.0664 15.8987H78.5736C78.1361 15.8987 77.9216 16.0749 77.9216 16.4188C77.9045 17.2494 78.2476 18.0548 78.8653 18.6337ZM92.4716 15.7812C93.0636 15.7812 93.5355 15.9322 93.8958 16.2427C94.2475 16.5531 94.4277 16.9726 94.4277 17.5011V18.0716C94.4277 18.6086 94.2475 19.0281 93.8958 19.3301C93.544 19.6321 93.0722 19.7915 92.4716 19.7915C91.8797 19.7915 91.3993 19.6405 91.0475 19.3301C90.6958 19.0197 90.5156 18.6002 90.5156 18.0716V17.5011C90.5156 16.9642 90.6958 16.5447 91.0475 16.2427C91.3993 15.9406 91.8711 15.7896 92.4716 15.7812ZM108.617 11.7961C108.986 11.7961 109.407 11.8044 109.887 11.8296C110.368 11.8548 110.805 11.8883 111.225 11.9387V11.3262C111.225 10.4453 111.054 9.84123 110.711 9.49725C110.368 9.15326 109.836 8.99386 109.106 8.99386C108.609 8.99386 108.197 9.06937 107.88 9.22038C107.554 9.3714 107.313 9.64826 107.202 9.98386C107.133 10.1684 107.056 10.2943 106.962 10.3446C106.867 10.395 106.687 10.4285 106.43 10.4285H104.86C104.602 10.4285 104.431 10.3866 104.328 10.2943C104.225 10.1936 104.173 10.051 104.182 9.90835C104.182 9.29589 104.431 8.717 104.928 8.18844C105.332 7.76056 105.855 7.43336 106.524 7.19844C107.185 6.96353 108.043 6.84607 109.106 6.84607C110.359 6.84607 111.346 7.01387 112.058 7.34107C112.77 7.66827 113.276 8.15488 113.568 8.80089C113.859 9.44691 114.005 10.2272 114.005 11.1333V15.7309C114.005 16.4104 113.868 17.0816 113.593 17.7025C113.319 18.3233 112.847 18.8183 112.186 19.2042C111.517 19.5818 110.582 19.7664 109.381 19.7664H108.703C106.996 19.7664 105.743 19.4559 104.928 18.8351C104.113 18.2143 103.71 17.2159 103.71 15.8315C103.71 14.808 103.933 14.0026 104.371 13.4153C104.817 12.828 105.443 12.3833 106.155 12.1652C106.944 11.9135 107.777 11.7877 108.617 11.7961ZM108.763 13.9438C108.008 13.9438 107.442 14.0865 107.065 14.3717C106.687 14.657 106.498 15.1352 106.498 15.8064C106.498 16.486 106.687 16.9558 107.056 17.2243C107.425 17.4927 107.948 17.627 108.626 17.627H109.038C109.827 17.627 110.385 17.4424 110.728 17.0565C111.071 16.6705 111.234 16.0413 111.234 15.1436V14.0865C110.702 14.0277 110.239 13.9858 109.836 13.969C109.432 13.9522 109.072 13.9438 108.763 13.9438ZM132.433 7.98708C131.798 7.22361 130.829 6.84607 129.525 6.84607C128.667 6.84607 127.912 6.99709 127.26 7.29912C126.625 7.56759 126.084 8.01225 125.69 8.56598C125.398 8.02903 124.952 7.58437 124.411 7.29073C123.862 6.99709 123.185 6.84607 122.387 6.84607C120.92 6.84607 119.813 7.34107 119.058 8.33107V7.86124C119.058 7.57598 119.007 7.39141 118.904 7.30751C118.801 7.22361 118.595 7.18166 118.286 7.18166H117.008C116.699 7.18166 116.493 7.22361 116.39 7.30751C116.287 7.39141 116.236 7.57598 116.236 7.86124V18.8267C116.236 19.112 116.287 19.2965 116.39 19.3804C116.502 19.4643 116.699 19.5063 117.008 19.5063H118.337C118.646 19.5063 118.852 19.4643 118.955 19.3804C119.058 19.2965 119.11 19.112 119.11 18.8267V11.9219C119.11 11.1081 119.315 10.4621 119.736 9.99225C120.156 9.52242 120.722 9.2875 121.426 9.2875C122.164 9.2875 122.67 9.48047 122.953 9.8664C123.236 10.2523 123.373 10.8061 123.373 11.5276V18.8351C123.373 19.1203 123.425 19.3049 123.528 19.3888C123.631 19.4727 123.837 19.5147 124.145 19.5147H125.475C125.784 19.5147 125.99 19.4727 126.093 19.3888C126.196 19.3049 126.247 19.1203 126.247 18.8351V11.9303C126.247 11.1165 126.453 10.4705 126.874 10.0006C127.294 9.53081 127.86 9.29589 128.564 9.29589C129.301 9.29589 129.808 9.48886 130.091 9.87479C130.374 10.2607 130.511 10.8144 130.511 11.536V18.8435C130.511 19.1287 130.563 19.3133 130.666 19.3972C130.777 19.4811 130.974 19.5231 131.283 19.5231H132.613C132.922 19.5231 133.128 19.4811 133.231 19.3972C133.334 19.3133 133.385 19.1287 133.385 18.8435V11.1081C133.385 9.79089 133.068 8.75055 132.433 7.98708ZM42.31 11.9387V18.8435C42.31 19.1287 42.2586 19.3133 42.1556 19.3972C42.0527 19.4811 41.8468 19.5231 41.5379 19.5231H40.2082C39.8993 19.5231 39.6934 19.4811 39.5905 19.3972C39.4875 19.3133 39.4361 19.1287 39.4361 18.8435V11.536C39.4361 10.5376 39.2988 10.2607 39.0157 9.87479C38.7326 9.48886 38.2264 9.29589 37.4886 9.29589C36.7851 9.29589 36.2189 9.53081 35.7985 10.0006C35.3782 10.4705 35.1723 11.1165 35.1723 11.9303V18.8351C35.1723 19.1203 35.1208 19.3049 35.0179 19.3888C34.9149 19.4727 34.709 19.5147 34.4002 19.5147H33.079C32.7702 19.5147 32.5728 19.4727 32.4613 19.3888C32.3584 19.3049 32.3069 19.1203 32.3069 18.8351V7.86124C32.3069 7.57598 32.3584 7.39141 32.4613 7.30751C32.5643 7.22361 32.7702 7.18166 33.079 7.18166H34.3573C34.6661 7.18166 34.872 7.22361 34.975 7.30751C35.0779 7.39141 35.1294 7.57598 35.1294 7.86124V8.33107C35.8843 7.34107 36.991 6.84607 38.458 6.84607C39.2559 6.84607 39.9336 6.99709 40.4827 7.29073C41.0232 7.58437 41.4693 8.02903 41.761 8.56598C42.1299 9.2875 42.31 10.3111 42.31 11.9387ZM144.924 3.43144V18.8519C144.924 19.1371 144.872 19.3217 144.769 19.4056C144.667 19.4895 144.461 19.5315 144.152 19.5315H142.831C142.522 19.5315 142.316 19.4895 142.213 19.4056C142.11 19.3217 142.058 19.1371 142.058 18.8519V3.43144C142.058 3.14618 142.11 2.96161 142.213 2.87771C142.316 2.79381 142.522 2.75186 142.831 2.75186H144.152C144.461 2.75186 144.658 2.79381 144.769 2.87771C144.872 2.96161 144.932 3.14618 144.924 3.43144ZM148.518 21.1339H148.33C148.089 21.1339 147.926 21.1759 147.849 21.2765C147.772 21.3604 147.729 21.5366 147.729 21.8051V22.9209C147.729 23.1894 147.772 23.3656 147.849 23.4495C147.926 23.5334 148.089 23.5753 148.33 23.5753H148.913C149.848 23.5753 150.595 23.4663 151.169 23.2481C151.761 23.0132 152.259 22.6105 152.593 22.082C152.971 21.5198 153.348 20.7396 153.734 19.7328L158.118 7.8948C158.153 7.79413 158.178 7.69345 158.187 7.58438C158.187 7.31591 157.998 7.18167 157.612 7.18167H156.017C155.776 7.18167 155.596 7.22362 155.485 7.29913C155.373 7.37464 155.27 7.53404 155.193 7.76896L152.585 15.454L149.719 7.81091C149.617 7.5676 149.514 7.39142 149.402 7.30752C149.291 7.22362 149.119 7.18167 148.896 7.18167H147.283C146.897 7.18167 146.708 7.31591 146.708 7.60116C146.708 7.71023 146.734 7.81091 146.777 7.91158L151.238 18.919L151.049 19.3637C150.895 19.7496 150.706 20.1187 150.474 20.4711C150.303 20.7144 150.054 20.899 149.771 20.9913C149.479 21.0836 149.067 21.1339 148.518 21.1339ZM4.50227 5.20168C4.50227 4.63118 4.9827 4.16135 5.56607 4.16135H14.0679C14.6513 4.16135 15.1317 4.63118 15.1317 5.20168V17.6857C15.1317 18.2562 15.6121 18.7261 16.1955 18.7261H18.3231C18.915 18.7261 19.3869 18.2562 19.3869 17.6857V0H4.50227C2.15162 0 0.24707 1.86254 0.24707 4.16135V18.7261H3.43847C4.02184 18.7261 4.50227 18.2562 4.50227 17.6857V5.20168Z" fill="#242325"/>
</svg>
