<svg width="6" height="9" viewBox="0 0 6 9" fill="none" xmlns="http://www.w3.org/2000/svg">
<path d="M1.04888 3.68435C0.999127 2.81323 1.00884 1.84528 1.03077 1.10336C1.03078 1.10322 1.03078 1.10308 1.03078 1.10293L1.03078 1.10293C1.03092 1.09849 1.03105 1.09409 1.03118 1.08973C1.03501 1.0918 1.03889 1.09389 1.0428 1.09599C1.69634 1.44798 2.53965 1.92363 3.26933 2.40237C3.63469 2.64208 3.95971 2.87487 4.21401 3.08673C4.48364 3.31136 4.61618 3.46581 4.65997 3.54165C4.70376 3.6175 4.77125 3.80951 4.83097 4.15533C4.88729 4.48149 4.92638 4.87936 4.9513 5.31562C5.00106 6.18691 4.99133 7.15506 4.96939 7.89704C4.96926 7.90149 4.96913 7.90589 4.969 7.91024C4.96516 7.90818 4.96129 7.90609 4.95737 7.90398C4.30383 7.55199 3.46052 7.07634 2.73084 6.5976C2.36548 6.35789 2.04046 6.1251 1.78617 5.91325C1.51653 5.68861 1.38399 5.53416 1.34021 5.45832C1.29642 5.38248 1.22893 5.19047 1.16921 4.84464C1.11288 4.51849 1.07379 4.12062 1.04888 3.68435ZM0.691425 0.918416C0.691415 0.9184 0.691983 0.918565 0.693158 0.918961L0.691425 0.918416ZM5.30875 8.08156C5.30876 8.08158 5.3082 8.08141 5.30702 8.08102L5.30875 8.08156Z" stroke="#0165FF" stroke-width="1.5"/>
</svg>
